# Aspose.3D Wavefront OBJ Exporter
# Copyright 2004-2023 Aspose Pty Ltd.
# File created: 10/21/2023 17:28:07

mtllib material.lib

#
# object Computer
#

v -6.09828617731610834 5.71506702899932864 -2.71587529517540192
v -9.75253637008598944 8.33082306385040284 0.67358597094343864
v -9.75253637008598944 5.71506702899932864 0.67358597094343864
v -6.09828617731610834 8.33082306385040284 -2.71587529517540192
# 4 vertices

vn 0.68004470776156544 0 0.73317064551541264
vn 0.68004470776156544 0 0.73317064551541264
vn 0.68004470776156544 0 0.73317064551541264
vn 0.68004470776156544 0 0.73317064551541264
# 4 vertex normals

vt -20928.46875 9.21819114685058592 0
vt -66979.375 2249.697265625 0
vt 41857.03515625 -67021.84375 0
vt 0.0002051219344139099 1.521773099899292 0
# 4 texture coords

g Computer
usemtl Screen
s 1
f 3/3/3 1/1/1 2/2/2
f 1/1/1 4/4/4 2/2/2
#2 polygons

